<svg width="19" height="20" viewBox="0 0 19 20" fill="none" xmlns="http://www.w3.org/2000/svg">
<path d="M10.1148 13.5859H14.7068C15.543 13.5859 16.2001 12.9204 16.2001 12.1243V5.86161C16.2001 5.06547 15.543 4.40001 14.7068 4.40001H4.62678C3.79052 4.40001 3.13345 5.06547 3.13345 5.86161V12.1243C3.13345 12.9204 3.79052 13.5859 4.62678 13.5859H6.12012V16.5333H6.12292L6.12478 16.5324L10.1157 13.5859H10.1148ZM6.68012 17.2828C6.48143 17.4293 6.23318 17.4919 5.9888 17.4571C5.74443 17.4224 5.52346 17.2931 5.37345 17.0971C5.2532 16.9387 5.18798 16.7453 5.18772 16.5464V14.5192H4.62772C3.28745 14.5192 2.20105 13.4468 2.20105 12.1243V5.86161C2.20012 4.53907 3.28652 3.46667 4.62678 3.46667H14.7068C16.047 3.46667 17.1334 4.53907 17.1334 5.86161V12.1243C17.1334 13.4477 16.047 14.5192 14.7068 14.5192H10.4228L6.67918 17.2828H6.68012Z" fill="#6F6F6F"/>
</svg>
