<svg width="21" height="20" viewBox="0 0 21 20" fill="none" xmlns="http://www.w3.org/2000/svg">
<path d="M11.9093 18.3491C11.1775 19.2731 9.77576 19.2748 9.04198 18.3523L3.9344 11.9309C3.16636 10.9657 3.84616 9.53957 5.07931 9.52749L6.46699 9.51369L6.46823 4.84903C6.46828 4.60861 6.51571 4.37055 6.6078 4.14847C6.69989 3.92638 6.83483 3.72462 7.00493 3.5547C7.17502 3.38479 7.37693 3.25006 7.59912 3.15821C7.8213 3.06636 8.05941 3.01919 8.29983 3.0194L12.6581 3.02334C13.1431 3.0239 13.608 3.21694 13.9507 3.56004C14.2934 3.90314 14.486 4.36826 14.486 4.85322L14.4865 9.5127L15.8419 9.51344C17.0805 9.51418 17.7714 10.9435 17.0031 11.9144L11.9093 18.3491ZM9.72424 17.81C9.81413 17.923 9.92839 18.0143 10.0585 18.0769C10.1886 18.1396 10.3312 18.1721 10.4756 18.1719C10.62 18.1717 10.7625 18.1389 10.8924 18.076C11.0224 18.013 11.1364 17.9215 11.2261 17.8083L16.3198 11.3736C16.6361 10.9736 16.3519 10.3852 15.8417 10.3848L14.0505 10.384C13.9933 10.384 13.9366 10.3728 13.8837 10.3509C13.8308 10.329 13.7828 10.2969 13.7423 10.2564C13.7019 10.2159 13.6698 10.1679 13.6479 10.115C13.626 10.0621 13.6147 10.0055 13.6147 9.94824L13.615 4.85322C13.6149 4.59916 13.514 4.35553 13.3344 4.17584C13.1548 3.99615 12.9112 3.8951 12.6571 3.8949L8.29884 3.89096C8.17292 3.89086 8.04822 3.91558 7.93185 3.96369C7.81548 4.01181 7.70974 4.08238 7.62065 4.17137C7.53157 4.26037 7.46089 4.36604 7.41265 4.48236C7.36442 4.59867 7.33958 4.72335 7.33954 4.84928L7.33831 9.94528C7.33833 10.0601 7.29303 10.1703 7.21226 10.2519C7.13149 10.3335 7.02177 10.3799 6.90696 10.3811L5.08793 10.3988C4.58018 10.4037 4.30042 10.9911 4.61641 11.3884L9.72424 17.81Z" fill="#6F6F6F"/>
</svg>
